<?xml version="1.0" standalone="no"?><!DOCTYPE svg PUBLIC "-//W3C//DTD SVG 1.1//EN" "http://www.w3.org/Graphics/SVG/1.1/DTD/svg11.dtd"><svg t="1494903203048" class="icon" style="" viewBox="0 0 1024 1024" version="1.1" xmlns="http://www.w3.org/2000/svg" p-id="2396" xmlns:xlink="http://www.w3.org/1999/xlink" width="200" height="200"><defs><style type="text/css"></style></defs><path d="M508.010129 522.1645 414.054247 522.1645l-0.754177 1.886977c-15.847943 37.987173-36.034704 70.561056-60.561307 97.727789-24.526603 27.167756-52.324716 47.608298-83.390245 61.316507C238.277872 696.80296 204.507744 703.659111 168.036088 703.659111c-24.90318 0-46.912449-3.14769-66.032926-9.432837l12.07399-29.054733c29.432333 14.845103 57.979506 22.262026 85.653799 22.262026 43.263339 0 82.004689-16.603143 116.217908-49.807383 14.338566-14.08581 26.348088-29.243021 36.034704-45.468564 9.680477-16.225543 20.187785-38.924521 31.507598-68.108191l0.754177-1.886977-38.109969 0 2.641153-12.82919 39.996946 0 0.7552-2.263553 2.641153-6.415107c8.5487-23.895223 16.225543-47.290049 23.017226-70.183456 6.792707-22.887266 15.093766-53.957913 24.904203-93.200682 9.3039-36.724413 15.97074-66.409502 19.998473-89.050152l39.242769-17.73492c-2.016937-0.50142-3.650133-0.813528-4.90573-0.942465-1.260713-0.12382-2.771113-0.313132-4.52813-0.565888-63.390749-7.039323-117.726262-10.565636-163.006538-10.565636-28.677133 0-52.260248 1.827625-70.749344 5.471618-18.489096 3.64911-33.647331 9.244548-45.468564 16.791431-17.610076 11.319813-26.41358 25.53456-26.41358 42.638099 0 35.469839 44.271296 55.597249 132.820028 60.373019l-25.281803 26.790156c-35.976376-2.263553-64.841797-10.877745-86.597287-25.846668-21.76163-14.963807-32.639375-34.148751-32.639375-57.542554 0-30.940686 19.490913-55.844889 58.486042-74.711586 32.951483-15.847943 81.503269-23.771403 145.649218-23.771403 17.10354 0 39.177278 1.007957 66.221214 3.018753 27.037796 2.015913 55.025221 4.592598 83.956134 7.735172 28.924773 3.148713 52.948933 6.479575 72.069409 9.998725l6.792707 1.131777-16.97972 33.960463-6.792707-1.131777c-22.391986-4.02057-48.551786-8.1711-78.484515-12.45159l-2.641153-0.3776-0.376577 2.263553c-1.261737 6.291287-4.717442 21.319561-10.377348 45.090964-5.659907 23.771403-10.630105 43.457768-14.904455 59.051931-4.28049 15.600303-8.807596 31.760354-13.583366 48.486294-4.78191 16.73208-9.940396 33.393551-15.470343 49.996694-9.562796 29.43131-18.489096 54.087872-26.790156 73.956386l91.313705 0L508.010129 522.1645z" p-id="2397" fill="#1afa29"></path><path d="M696.297446 685.171038l-24.90318 7.92346 29.80891-153.573701 2.641153-13.205766c1.509377-7.293103 2.263553-13.33061 2.263553-18.111496 0-11.066033-4.40431-16.603143-13.205766-16.603143-8.30106 0-18.365276 5.601578-30.18651 16.791431-11.827373 11.195993-24.278963 27.357068-37.355793 48.486294-8.553817 13.583366-15.912411 26.66736-22.073738 39.242769-6.166443 12.58155-11.827373 25.977651-16.97972 40.186258-5.158487 14.21577-10.128685 30.505781-14.904455 48.864918l-23.393803 7.92346 38.864146-209.04099 36.224016-15.470343-32.827663 136.970558c16.84976-38.988989 36.158525-70.996984 57.920154-96.030124 21.75549-25.028023 41.318034-37.544081 58.675354-37.544081 18.866696 0 28.299533 10.695596 28.299533 32.073486 0 7.299243-1.886977 20.252253-5.659907 38.865169l-12.452613 56.221466c24.397666-46.789653 45.026496-79.805604 61.883419-99.048877 16.84976-19.244296 33.58184-28.865421 50.183959-28.865421 9.3039 0 16.603143 2.771113 21.88545 8.30106 5.28333 5.536087 7.924483 13.459546 7.924483 23.771403 0 8.30106-2.518357 22.64065-7.546883 43.015699l-11.697413 46.411029-3.773953 14.716166c-3.52529 15.600303-5.282307 27.167756-5.282307 34.714639 0 8.05342 1.379417 14.526855 4.15053 19.431561 2.764973 4.90573 6.285147 7.357572 10.565636 7.357572 8.04728 0 20.62269-9.302877 37.732369-27.921933l5.659907 5.282307-3.39533 4.151553c-14.33959 16.8559-24.968671 28.241204-31.884175 34.147728-6.922666 5.907547-13.272281 8.866948-19.054985 8.866948-7.800663 0-14.404058-3.961218-19.810185-11.885701-5.412266-7.92346-8.112772-17.793248-8.112772-29.619598 0-7.293103 1.63422-19.244296 4.90573-35.846416l13.96199-78.106916 2.263553-13.583366c1.509377-7.546883 2.264577-13.583366 2.264577-18.111496s-1.385557-8.1711-4.151553-10.942213c-2.771113-2.764973-6.545066-4.15053-11.319813-4.15053-5.536087 0-11.639085 2.329045-18.300808 6.980995-6.668886 4.657067-13.772678 11.761881-21.319561 21.318538-7.546883 9.562796-15.97688 22.138206-25.28078 37.733393-12.58155 21.383006-22.769586 41.318034-30.56411 59.806107C711.137433 635.551944 703.59055 658.256038 696.297446 685.171038z" p-id="2398" fill="#1afa29"></path></svg>