<?xml version="1.0" standalone="no"?><!DOCTYPE svg PUBLIC "-//W3C//DTD SVG 1.1//EN" "http://www.w3.org/Graphics/SVG/1.1/DTD/svg11.dtd"><svg t="1486623139247" class="icon" style="" viewBox="0 0 1024 1024" version="1.1" xmlns="http://www.w3.org/2000/svg" p-id="14264" xmlns:xlink="http://www.w3.org/1999/xlink" width="200" height="200"><defs><style type="text/css"></style></defs><path d="M949.082 519.343L508.704 107.59 68.327 518.134c-8.616 8.032-9.097 21.538-1.044 30.144 8.043 8.6 21.566 9.086 30.175 1.036l411.215-383.338 411.233 384.505a21.298 21.298 0 0 0 14.59 5.76c5.69 0 11.384-2.26 15.584-6.757 8.058-8.6 7.615-22.096-0.998-30.14z m0 0" fill="#007A91" p-id="14265"></path><path d="M814.7 527.8c-11.788 0-21.35 9.557-21.35 21.329v327.037H622.552V648.663H394.825v227.503H224.033V549.129c0-11.772-9.552-21.328-21.348-21.328-11.803 0-21.354 9.556-21.354 21.328V918.82h256.195V691.318h142.33V918.82h256.189V549.13c0-11.772-9.563-21.328-21.345-21.328z m0 0M665.255 222.095H793.35v113.749c0 11.79 9.563 21.333 21.35 21.333 11.783 0 21.346-9.544 21.346-21.333V179.44H665.255c-11.79 0-21.353 9.538-21.353 21.328-0.001 11.786 9.562 21.327 21.353 21.327z m0 0" fill="#007A91" p-id="14266"></path></svg>