<?xml version="1.0" standalone="no"?><!DOCTYPE svg PUBLIC "-//W3C//DTD SVG 1.1//EN" "http://www.w3.org/Graphics/SVG/1.1/DTD/svg11.dtd"><svg t="1489031083612" class="icon" style="" viewBox="0 0 1024 1024" version="1.1" xmlns="http://www.w3.org/2000/svg" p-id="3519" xmlns:xlink="http://www.w3.org/1999/xlink" width="200" height="200"><defs><style type="text/css"></style></defs><path d="M826.76843 354.274754C772.586301 301.287192 718.489498 248.299629 664.307369 195.312067 656.713338 187.803363 656.713338 187.803363 648.863329 195.653372 525.481662 318.77906 402.185321 441.990075 278.633001 565.030437 272.660168 571.003271 268.991142 577.402735 266.772661 585.423396 247.744921 655.988153 228.461203 726.55291 209.262811 797.032341 207.556287 803.261153 205.849763 809.404638 204.143239 815.889429 204.484544 823.056828 209.518789 819.21715 212.163901 818.534541 288.616165 797.373646 365.068429 776.042099 441.520693 754.881205 447.237548 753.260007 451.674509 750.358917 455.855493 746.26326 579.493138 622.71094 703.21611 499.158621 826.853756 375.691627 837.690182 364.940528 837.690182 364.940528 826.76843 354.274754ZM735.810714 354.360081C689.137289 400.948179 642.549191 447.70693 595.961092 494.380354 527.444164 562.982609 458.841909 631.584864 390.410307 700.272445 385.63204 705.136037 380.427143 708.293106 373.857026 710.084956 348.856453 716.825725 324.026533 723.907799 299.111286 730.81922 295.783565 731.757808 291.346603 734.317593 291.602582 727.832803 297.831393 705.050711 304.572162 683.207207 309.521081 660.851746 313.019455 645.407706 320.784138 634.059323 331.791216 623.137571 434.182641 521.258103 536.147435 418.952004 638.282881 316.816558 648.522024 306.577416 659.102471 296.85023 669.341614 286.611088 673.01064 282.856735 675.655752 283.112714 679.580756 286.611088 699.376432 304.444261 717.55091 324.15461 736.919954 342.49974 742.295504 347.619312 739.735718 350.520402 735.810714 354.360081ZM1022.848008 115.361429C1017.643111 52.817334 965.764789 0.256402 896.309272 0.000424 862.178797-0.084902 832.229306 12.714026 807.74069 36.946663 777.193915 67.152133 746.988444 97.698909 716.441669 127.989705 711.578077 132.767972 711.322098 135.754388 716.356343 140.532655 735.981366 158.877785 755.265085 177.478894 774.548803 196.165329 811.921673 232.343632 849.209217 268.607262 886.326109 304.956218 890.76307 309.307854 893.23753 309.649158 897.759818 305.12687 927.623983 274.836074 957.91478 245.057234 987.778945 214.766438 1011.584952 190.619127 1022.59203 160.925613 1023.957249 125.515246 1023.70127 123.296765 1023.189313 119.37176 1022.848008 115.361429ZM939.228345 173.724542C924.381588 188.827277 909.193527 203.75936 894.34677 218.862095 892.042963 221.080576 890.848396 220.909923 888.629916 218.776769 870.114133 200.602291 851.513024 182.513139 832.826589 164.423987 823.18473 155.208759 813.542871 145.908204 803.815685 136.692976 801.2559 134.303843 801.426552 132.767972 803.815685 130.464165 819.089073 115.361429 834.191808 100.088042 849.465196 84.985307 861.66684 72.954314 876.598923 66.55485 893.578834 66.55485 928.306593 66.725502 954.160428 92.920642 956.720213 124.150027 956.976192 126.112529 957.146844 128.160357 957.317496 129.184272 956.634887 146.932119 951.088685 161.693549 939.228345 173.724542ZM1021.141485 367.414987C1018.496373 368.182923 1016.960502 370.48673 1015.168652 372.27858 993.581126 393.866105 971.908275 415.453631 950.320749 437.041156 950.406075 553.34075 950.576728 669.640343 950.235423 785.939937 950.064771 835.429126 931.890293 877.750915 894.517423 910.772149 864.653257 937.223267 829.328215 951.558067 789.054255 951.558067 603.384471 951.814045 417.629361 951.814045 231.959577 951.558067 193.477466 951.472741 159.346991 937.991203 130.080109 912.905304 91.171367 879.457438 72.228954 836.794345 72.228954 785.598632 72.31428 603.768527 72.31428 422.023747 72.228954 240.278968 72.143627 189.851191 90.65941 147.700054 128.03228 114.337515 155.592639 89.763573 188.357895 76.111383 225.645439 74.404859 273.684082 72.101052 321.722726 73.636924 369.846696 73.466271 441.947324 73.210293 514.047952 73.295619 586.148581 73.380945 607.736106 51.878746 629.238306 30.376547 650.740505 8.789021 652.617681 6.911845 656.628012 5.290647 655.177467 2.304231 654.068226 0.000424 650.313874 1.280317 647.754088 1.280317 547.325166 1.19499 446.981569 1.024338 346.552646 1.280317 290.578667 1.450969 234.604688-0.255555 178.630709 2.389557 135.285006 4.437386 97.1442 20.22273 65.061554 48.977655 21.545198 87.801071-0.042327 136.863629 0.042999 195.568046 0.213651 407.176991 0.128325 618.871262 0.128325 830.480207 0.128325 890.123212 22.142482 939.783053 67.450687 978.691794 101.495836 1007.873351 141.172513 1023.658695 186.054088 1023.658695 402.270647 1024.085326 618.487206 1024 834.703765 1023.744021 881.547842 1023.744021 922.675064 1007.020089 957.488149 976.217335 1000.919178 937.820551 1022.165399 888.502014 1022.336051 830.821512 1022.762682 679.026224 1022.506704 527.14561 1022.421378 375.264996 1022.421378 372.790537 1023.274639 369.974773 1021.141485 367.414987Z" p-id="3520" fill="#1afa29"></path></svg>